<svg xmlns="http://www.w3.org/2000/svg" xmlns:xlink="http://www.w3.org/1999/xlink" version="1.1" xml:space="preserve" viewBox="281.3 191.6 71.68 46.66">
<desc>Created with Fabric.js 5.3.0</desc>
<defs>
</defs>
<g transform="matrix(0.1194626652 0 0 0.1132743547 317.1398230042 214.9301395181)" id="QFwzVj3uu6UnZc-io-z93">
<path style="stroke: none; stroke-width: 1; stroke-dasharray: none; stroke-linecap: butt; stroke-dashoffset: 0; stroke-linejoin: miter; stroke-miterlimit: 4; fill: rgb(0,0,0); fill-rule: nonzero; opacity: 1;" transform=" translate(0, 0)" d="M 296.74766 -118.90593 L 200.12766 -203.59693 C 196.16466 -207.06893 190.13566 -206.67493 186.66165999999998 -202.71093 C 183.89466 -199.55492999999998 183.58365999999998 -195.08893 185.57165999999998 -191.64693 C 183.92365999999998 -188.79093 183.85266 -185.24693 185.46565999999999 -182.29993 C 199.36365999999998 -156.88493 204.87266 -126.36892999999999 206.16665999999998 -97.46692999999999 C 190.74765999999997 -112.58792999999999 165.79465999999996 -134.99193 135.23865999999998 -154.96093 C 104.95765999999998 -174.74993 75.47165999999999 -187.95792999999998 47.600659999999976 -194.21693 C 11.973659999999974 -202.21992999999998 -21.04934000000003 -198.88192999999998 -50.548340000000024 -184.29993 C -80.95934000000003 -169.26792999999998 -103.81734000000003 -145.62493 -120.42734000000003 -112.01992999999999 C -134.93534000000002 -82.66592999999999 -143.19634000000002 -49.68692999999999 -151.94034000000002 -14.769929999999988 C -171.99934000000002 65.31807 -192.74034 148.13407 -293.91634 187.52507 C -298.82734 189.43807 -301.25934 194.96907 -299.34734 199.88007 C -297.87834 203.65306999999999 -294.27234 205.96307 -290.45234 205.96307 C -289.30134 205.96307 -288.13034 205.75306999999998 -286.99334 205.31107 C -176.62434 162.33907 -153.67533999999998 70.70806999999999 -133.42834 -10.133929999999992 C -116.97734 -75.81693 -101.43933999999999 -137.85692999999998 -42.09233999999999 -167.19092999999998 C 4.566660000000006 -190.25492999999997 60.60266 -180.83693 124.46466 -139.20092999999997 C 165.85766 -112.21392999999998 197.33166 -79.63492999999997 206.23566 -70.02192999999997 C 204.71666 -28.98792999999997 196.67266 3.400070000000028 196.51865999999998 4.0030700000000365 C 195.38366 8.449070000000036 197.57665999999998 13.073070000000037 201.73665999999997 15.012070000000037 C 205.89565999999996 16.950070000000036 210.84565999999998 15.653070000000037 213.51965999999996 11.923070000000036 L 298.21065999999996 -106.16792999999996 C 301.07365999999996 -110.15892999999996 300.43965999999995 -115.66892999999996 296.74765999999994 -118.90592999999996 z M 222.54866 -33.41493 C 223.98666 -44.928929999999994 225.17166 -58.187929999999994 225.57566 -72.39993 C 234.52566 -103.06593 236.93866 -128.89893 232.81866 -149.56293 L 277.65866 -110.25892999999999 z" stroke-linecap="round"/>
</g>
</svg>